# xmcd CD database file
#
# Track frame offsets:
#	150
#	20570
#	42970
#	63107
#	86117
#	105667
#	128975
#	148992
#	164497
#	185805
#
# Disc length: 2728 seconds
#
# Revision: 0
# Processed by: cddbd v1.5.1PL0 Copyright (c) Steve Scherf et al.
# Submitted via: CDex 1.51
#
DISCID=920aa60a
DTITLE=Jiaen - Rise
DYEAR=1900
DGENRE=Rock
TTITLE0=YA-O
TTITLE1=Good Night Jenny
TTITLE2=Wipe Out
TTITLE3=Silk
TTITLE4=Kiss
TTITLE5=Tokyo Chaos
TTITLE6=Soul Love
TTITLE7=True
TTITLE8=Everybody Waitin'
TTITLE9=Rondo
EXTD=
EXTT0=
EXTT1=
EXTT2=
EXTT3=
EXTT4=
EXTT5=
EXTT6=
EXTT7=
EXTT8=
EXTT9=
PLAYORDER=
